# xmcd CD database file
#
# Track frame offsets:
#	150
#	15337
#	32012
#
# Disc length: 732 seconds
#
# Revision: 2
# Processed by: cddbd v1.5.2PL0 Copyright (c) Steve Scherf et al.
# Submitted via: CDex 1.70beta1
#
DISCID=1402da03
DTITLE=High Speed Boyz  - 叶えたい夢がある~4EVER BOYZ AND GIRLZ SPIRIT~ 
DYEAR=2009
DGENRE=J-POP
TTITLE0=叶えたい夢がある ~4EVER BOYZ AND GIRLZ SPIRIT~ 
TTITLE1=CRASH CRASH 
TTITLE2=LONELY NIGHT -FM80’z all night Boyz RMX- 
EXTD=YEAR: 2009
EXTT0=
EXTT1=
EXTT2=
PLAYORDER=
